<!DOCTYPE svg PUBLIC "-//W3C//DTD SVG 1.1//EN" "http://www.w3.org/Graphics/SVG/1.1/DTD/svg11.dtd">
<!-- Uploaded to: SVG Repo, www.svgrepo.com, Transformed by: SVG Repo Mixer Tools -->
<svg fill="#4CAF50" height="256px" width="256px" version="1.1" id="Capa_1" xmlns="http://www.w3.org/2000/svg" xmlns:xlink="http://www.w3.org/1999/xlink" viewBox="-34.25 -34.25 557.74 557.74" xml:space="preserve" stroke="#4CAF50" stroke-width="9.295598000000002">
<g id="SVGRepo_bgCarrier" stroke-width="0" transform="translate(14.677260000000018,14.677260000000018), scale(0.94)">
<path transform="translate(-34.25, -34.25), scale(17.429375)" d="M16,27.874008487910032C18.68491225800393,27.401986937096108,21.081345810892532,26.29376866515026,23.233905235176923,24.62103255250816C25.480565093513984,22.875171771399582,27.47458006233949,20.867325359279906,28.454138394073773,18.1960006203524C29.618105974670534,15.021778838324643,31.124941975656444,11.156842660345664,29.18701896546341,8.386471050481004C27.253273831199028,5.6220719528376275,22.940245874069777,6.791095552236106,19.736598614117312,5.733779682147254C16.69999341410306,4.731593545956643,14.217953347408631,1.9635817688488522,11.050261595593662,2.4007055016862324C7.508931221024103,2.889389273285946,3.8925754070162064,4.896210744208144,2.36938108535092,8.130358500406139C0.8858817702238222,11.280223171707,2.93449407132797,14.769280734703436,3.617023214753253,18.183452908725567C4.276334814803716,21.48148544050232,3.613851194016162,25.5319325250624,6.262506568496253,27.604692779857103C8.899143694180015,29.66804790453285,12.702542524850104,28.453718676398786,16,27.874008487910032" fill="#ffffff" strokewidth="0"/>
</g>
<g id="SVGRepo_tracerCarrier" stroke-linecap="round" stroke-linejoin="round" stroke="#fcfcfc" stroke-width="53.816620000000015"> <g> <g> <path d="M416.321,171.943c0-97.8-82.2-176.9-181-171.7c-89.5,5.2-160.3,79.1-162.4,168.6c0,44.7,16.6,86.3,45.8,118.6 c47.7,51.1,41.6,110.3,41.6,110.3c0,11.4,9.4,20.8,20.8,20.8h126.9c11.4,0,20.8-9.4,21.8-20.8c0,0-7-57.7,40.6-109.2 C399.621,257.243,416.321,215.643,416.321,171.943z M288.321,377.943h-87.4c-2.1-42.7-20.8-84.3-51-116.5 c-22.9-25-34.3-57.2-34.3-90.5c1-68.7,54.1-124.8,122.8-129c74.9-4.2,137.3,56.2,137.3,130c0,32.3-12.5,64.5-35.4,88.4 C309.121,293.643,290.421,335.243,288.321,377.943z"/> <path d="M281.021,447.643h-73.9c-11.4,0-20.8,9.4-20.8,20.8s9.4,20.8,20.8,20.8h73.9c11.4,0,20.8-9.4,20.8-20.8 C301.821,457.043,292.521,447.643,281.021,447.643z"/> </g> </g> </g>
<g id="SVGRepo_iconCarrier"> <g> <g> <path d="M416.321,171.943c0-97.8-82.2-176.9-181-171.7c-89.5,5.2-160.3,79.1-162.4,168.6c0,44.7,16.6,86.3,45.8,118.6 c47.7,51.1,41.6,110.3,41.6,110.3c0,11.4,9.4,20.8,20.8,20.8h126.9c11.4,0,20.8-9.4,21.8-20.8c0,0-7-57.7,40.6-109.2 C399.621,257.243,416.321,215.643,416.321,171.943z M288.321,377.943h-87.4c-2.1-42.7-20.8-84.3-51-116.5 c-22.9-25-34.3-57.2-34.3-90.5c1-68.7,54.1-124.8,122.8-129c74.9-4.2,137.3,56.2,137.3,130c0,32.3-12.5,64.5-35.4,88.4 C309.121,293.643,290.421,335.243,288.321,377.943z"/> <path d="M281.021,447.643h-73.9c-11.4,0-20.8,9.4-20.8,20.8s9.4,20.8,20.8,20.8h73.9c11.4,0,20.8-9.4,20.8-20.8 C301.821,457.043,292.521,447.643,281.021,447.643z"/> </g> </g> </g>
</svg>